#!OML:ASF H:\Dans Jumps\Project 1\Capture day 1\Session 1\subject.ASF
:FULLY-SPECIFIED
:DEGREES
301
root 0.53263 13.9687 -15.2889 31.331 -0.93998 -2.25482
lowerback 23.9596 1.45507 -2.366
upperback 2.58772 1.53615 2.34876
thorax -10.6547 0.87496 3.48688
lowerneck -23.2616 0.239982 -1.12905
upperneck 4.34982 0.783718 -1.29278
head 4.95933 0.260691 -0.152551
rclavicle -8.54774e-015 1.88845e-014
rhumerus -63.3803 -20.6584 -53.3075
rradius 18.7361
rwrist 38.7987
rhand -18.1222 -21.8095
rfingers 7.12502
rthumb 8.15239 -51.6323
lclavicle -8.54774e-015 1.88845e-014
lhumerus -59.3908 10.0682 68.9548
lradius 9.79724
lwrist -1.88336
lhand -23.2898 -3.8777
lfingers 7.12502
lthumb 3.1632 26.0786
rfemur -80.0522 1.31373 21.4429
rtibia 85.1752
rfoot -34.7315 -16.3918
rtoes 3.22197
lfemur -81.0499 5.19026 -22.1454
ltibia 84.8995
lfoot -29.9102 21.7221
ltoes -8.00172
302
root 0.538599 13.9747 -15.2275 31.5909 -1.01882 -2.26629
lowerback 24.0876 1.48308 -2.36932
upperback 2.43485 1.56936 2.33225
thorax -10.8993 0.896047 3.45997
lowerneck -23.4305 0.229732 -1.14154
upperneck 4.3237 0.776701 -1.29847
head 4.97554 0.256069 -0.153117
rclavicle -6.55989e-015 -1.74931e-014
rhumerus -62.0099 -21.4427 -53.3578
rradius 18.41
rwrist 39.5035
rhand -18.4375 -21.9105
rfingers 7.12502
rthumb 7.84808 -51.7448
lclavicle -6.55989e-015 -1.74931e-014
lhumerus -57.6053 10.9766 68.6817
lradius 9.07388
lwrist -2.72701
lhand -23.4317 -3.83856
lfingers 7.12502
lthumb 3.02615 26.1197
rfemur -80.0213 1.34708 21.4034
rtibia 85.1306
rfoot -34.9332 -16.4497
rtoes 3.15685
lfemur -81.0081 5.12893 -22.1285
ltibia 84.8886
lfoot -30.0619 21.9164
ltoes -7.87687
303
root 0.544609 13.9852 -15.1605 31.8129 -1.0958 -2.29025
lowerback 24.1759 1.51314 -2.36313
upperback 2.29077 1.60932 2.3245
thorax -11.1138 0.919421 3.43502
lowerneck -23.6054 0.228106 -1.127
upperneck 4.33161 0.778923 -1.34953
head 5.00387 0.252602 -0.171507
rclavicle -9.54166e-015 -7.35503e-015
rhumerus -60.5118 -22.3122 -53.4319
rradius 18.0944
rwrist 40.3551
rhand -18.7187 -21.9913
rfingers 7.12502
rthumb 7.5767 -51.8356
lclavicle -9.54166e-015 -7.35503e-015
lhumerus -55.7025 11.9281 68.4793
lradius 8.42198
lwrist -3.51016
lhand -23.4712 -3.77208
lfingers 7.12502
lthumb 2.98808 26.1867
rfemur -79.8943 1.37188 21.3856
rtibia 85.0326
rfoot -35.122 -16.4994
rtoes 3.05922
lfemur -80.8741 5.09907 -22.1071
ltibia 84.831
lfoot -30.2068 22.0881
ltoes -7.79051
304
root 0.550816 14 -15.088 31.9977 -1.17536 -2.33078
lowerback 24.2221 1.54694 -2.3478
upperback 2.15159 1.65834 2.32584
thorax -11.3012 0.946275 3.41188
lowerneck -23.784 0.229021 -1.09849
upperneck 4.38114 0.784446 -1.43034
head 5.04632 0.24819 -0.201308
rclavicle -7.7526e-015 -1.19271e-014
rhumerus -58.8915 -23.2403 -53.562
rradius 17.8217
rwrist 41.3215
rhand -18.925 -22.0609
rfingers 7.12502
rthumb 7.37757 -51.9123
lclavicle -7.7526e-015 -1.19271e-014
lhumerus -53.6905 12.9181 68.3513
lradius 7.8386
lwrist -4.29542
lhand -23.5126 -3.72348
lfingers 7.12502
lthumb 2.94811 26.2359
rfemur -79.6726 1.39696 21.3893
rtibia 84.8798
rfoot -35.2969 -16.5481
rtoes 2.93334
lfemur -80.6492 5.10591 -22.0797
ltibia 84.7263
lfoot -30.3427 22.24
ltoes -7.76298
305
root 0.557582 14.0193 -15.0101 32.1457 -1.25238 -2.38794
lowerback 24.2289 1.5807 -2.31849
upperback 2.01368 1.71307 2.33746
thorax -11.4666 0.97499 3.39031
lowerneck -23.9636 0.237914 -1.04645
upperneck 4.4716 0.798054 -1.54432
head 5.10242 0.245063 -0.244648
rclavicle -5.76476e-015 2.18663e-015
rhumerus -57.1368 -24.1627 -53.823
rradius 17.6199
rwrist 42.3097
rhand -19.0956 -22.1371
rfingers 7.12502
rthumb 7.21285 -51.9941
lclavicle -5.76476e-015 2.18663e-015
lhumerus -51.5871 13.9427 68.2989
lradius 7.34172
lwrist -5.14305
lhand -23.6088 -3.68174
lfingers 7.12502
lthumb 2.85512 26.2789
rfemur -79.3541 1.41951 21.4141
rtibia 84.6707
rfoot -35.4578 -16.6019
rtoes 2.77965
lfemur -80.333 5.14198 -22.0434
ltibia 84.5727
lfoot -30.4725 22.3722
ltoes -7.80601
306
root 0.564958 14.0431 -14.9271 32.2605 -1.32815 -2.4545
lowerback 24.1951 1.61333 -2.281
upperback 1.87142 1.7701 2.35457
thorax -11.6153 1.00431 3.3695
lowerneck -24.1346 0.244621 -0.996423
upperneck 4.6032 0.809498 -1.65362
head 5.17052 0.240669 -0.28647
rclavicle 1.39149e-015 -4.17448e-015
rhumerus -55.2325 -25.0045 -54.2945
rradius 17.5082
rwrist 43.1669
rhand -19.2646 -22.2298
rfingers 7.12502
rthumb 7.04969 -52.0924
lclavicle 1.39149e-015 -4.17448e-015
lhumerus -49.4046 14.9935 68.3185
lradius 6.93747
lwrist -6.10859
lhand -23.8058 -3.64001
lfingers 7.12502
lthumb 2.66493 26.3231
rfemur -78.9438 1.44189 21.4484
rtibia 84.4056
rfoot -35.6 -16.6721
rtoes 2.60553
lfemur -79.9272 5.20126 -22.0037
ltibia 84.3663
lfoot -30.5971 22.4876
ltoes -7.95562
307
root 0.573276 14.0714 -14.8391 32.3391 -1.40001 -2.52356
lowerback 24.1315 1.64047 -2.23712
upperback 1.72192 1.82312 2.37666
thorax -11.7558 1.03159 3.35212
lowerneck -24.2979 0.246804 -0.966499
upperneck 4.77939 0.818621 -1.73495
head 5.25168 0.236395 -0.316445
rclavicle -6.16232e-015 -1.19271e-015
rhumerus -53.1482 -25.661 -55.0562
rradius 17.5083
rwrist 43.7041
rhand -19.4067 -22.3534
rfingers 7.12502
rthumb 6.91261 -52.2206
lclavicle -6.16232e-015 -1.19271e-015
lhumerus -47.167 16.0706 68.4088
lradius 6.65041
lwrist -7.20279
lhand -24.2329 -3.64478
lfingers 7.12502
lthumb 2.25239 26.3231
rfemur -78.4396 1.45679 21.4861
rtibia 84.0832
rfoot -35.7196 -16.7621
rtoes 2.39184
lfemur -79.4267 5.26944 -21.9613
ltibia 84.1022
lfoot -30.7128 22.5938
ltoes -8.25883
308
root 0.58209 14.1049 -14.7462 32.3812 -1.47562 -2.58233
lowerback 24.0386 1.6656 -2.20207
upperback 1.56491 1.87117 2.39269
thorax -11.8888 1.05684 3.33483
lowerneck -24.4402 0.243625 -0.952401
upperneck 4.98119 0.820695 -1.77289
head 5.33779 0.231623 -0.330767
rclavicle 5.1684e-015 1.78906e-015
rhumerus -50.8925 -26.1211 -56.1042
rradius 17.6119
rwrist 43.8832
rhand -19.611 -22.5141
rfingers 7.12502
rthumb 6.71538 -52.3876
lclavicle 5.1684e-015 1.78906e-015
lhumerus -44.883 17.1557 68.5605
lradius 6.5009
lwrist -8.40869
lhand -24.8215 -3.74058
lfingers 7.12502
lthumb 1.68397 26.2325
rfemur -77.8415 1.46516 21.5127
rtibia 83.7004
rfoot -35.8064 -16.885
rtoes 2.12135
lfemur -78.8237 5.34205 -21.9273
ltibia 83.7717
lfoot -30.82 22.6958
ltoes -8.76211
309
root 0.591215 14.1437 -14.6487 32.3803 -1.5523 -2.61767
lowerback 23.9255 1.68844 -2.18131
upperback 1.39982 1.91186 2.39956
thorax -12.0195 1.07925 3.31808
lowerneck -24.5746 0.228161 -0.963811
upperneck 5.22649 0.809145 -1.76125
head 5.43646 0.22327 -0.32661
rclavicle 1.11319e-014 -2.5842e-015
rhumerus -48.4911 -26.3605 -57.402
rradius 17.8358
rwrist 43.6935
rhand -19.8104 -22.6878
rfingers 7.12502
rthumb 6.52288 -52.5674
lclavicle 1.11319e-014 -2.5842e-015
lhumerus -42.5834 18.2297 68.7699
lradius 6.52822
lwrist -9.64068
lhand -25.483 -3.93042
lfingers 7.12502
lthumb 1.0451 26.0468
rfemur -77.1448 1.4588 21.5169
rtibia 83.2577
rfoot -35.8626 -17.0364
rtoes 1.78131
lfemur -78.1108 5.41198 -21.9121
ltibia 83.3698
lfoot -30.9105 22.7954
ltoes -9.46948
310
root 0.600155 14.188 -14.5469 32.3283 -1.63261 -2.6244
lowerback 23.7966 1.71152 -2.18227
upperback 1.23203 1.94586 2.39377
thorax -12.1444 1.09933 3.30193
lowerneck -24.7015 0.204851 -0.987498
upperneck 5.50805 0.787097 -1.71338
head 5.54561 0.21226 -0.309998
rclavicle -1.55052e-014 4.37326e-015
rhumerus -45.9825 -26.3811 -58.8986
rradius 18.1982
rwrist 43.169
rhand -20.0051 -22.8672
rfingers 7.12502
rthumb 6.33484 -52.7525
lclavicle -1.55052e-014 4.37326e-015
lhumerus -40.2968 19.2766 69.0279
lradius 6.76896
lwrist -10.8013
lhand -26.1491 -4.26446
lfingers 7.12502
lthumb 0.401783 25.7149
rfemur -76.3419 1.43935 21.4936
rtibia 82.754
rfoot -35.8941 -17.2126
rtoes 1.37472
lfemur -77.2796 5.4823 -21.9202
ltibia 82.8942
lfoot -30.987 22.8859
ltoes -10.3507
311
root 0.608347 14.2368 -14.441 32.2212 -1.70955 -2.60697
lowerback 23.6541 1.73429 -2.19972
upperback 1.06258 1.97415 2.3783
thorax -12.2634 1.11736 3.28637
lowerneck -24.8135 0.179886 -1.00274
upperneck 5.8225 0.759432 -1.65737
head 5.6635 0.199275 -0.292728
rclavicle 6.55989e-015 -1.33186e-014
rhumerus -43.4229 -26.2127 -60.5076
rradius 18.7018
rwrist 42.3785
rhand -20.2361 -23.0107
rfingers 7.12502
rthumb 6.11187 -52.9025
lclavicle 6.55989e-015 -1.33186e-014
lhumerus -38.0662 20.2799 69.3215
lradius 7.274
lwrist -11.7396
lhand -26.6533 -4.65983
lfingers 7.12502
lthumb -0.0852059 25.3199
rfemur -75.4284 1.40882 21.4499
rtibia 82.1919
rfoot -35.917 -17.3982
rtoes 0.919009
lfemur -76.3355 5.56262 -21.9479
ltibia 82.3505
lfoot -31.0535 22.9605
ltoes -11.3693
312
root 0.615499 14.2907 -14.331 32.0519 -1.77685 -2.57709
lowerback 23.4985 1.75625 -2.22473
upperback 0.897088 1.99921 2.35969
thorax -12.3703 1.13405 3.27279
lowerneck -24.9203 0.155971 -1.00114
upperneck 6.17989 0.729756 -1.61236
head 5.79505 0.184542 -0.281946
rclavicle 1.19271e-015 1.23246e-014
rhumerus -40.8453 -25.8442 -62.1956
rradius 19.3746
rwrist 41.2917
rhand -20.4242 -23.1743
rfingers 7.12502
rthumb 5.93025 -53.0713
lclavicle 1.19271e-015 1.23246e-014
lhumerus -35.9109 21.2362 69.645
lradius 8.04182
lwrist -12.2981
lhand -27.024 -5.18355
lfingers 7.12502
lthumb -0.443285 24.7957
rfemur -74.3884 1.37322 21.3976
rtibia 81.5644
rfoot -35.9475 -17.5781
rtoes 0.434191
lfemur -75.2717 5.66175 -21.9824
ltibia 81.7401
lfoot -31.1193 23.009
ltoes -12.437
